<?xml version="1.0" encoding="utf-8"?>
<!-- Generator: Adobe Illustrator 16.0.0, SVG Export Plug-In . SVG Version: 6.00 Build 0)  -->
<!DOCTYPE svg PUBLIC "-//W3C//DTD SVG 1.1//EN" "http://www.w3.org/Graphics/SVG/1.1/DTD/svg11.dtd">
<svg version="1.1" id="Layer_4" xmlns="http://www.w3.org/2000/svg" xmlns:xlink="http://www.w3.org/1999/xlink" x="0px" y="0px"
	 width="300px" height="300px" viewBox="0 0 300 300" enable-background="new 0 0 300 300" xml:space="preserve">
<path fill-rule="evenodd" clip-rule="evenodd" fill="#F7F7F7" d="M254.992,210.483c-0.633,3.174,2.004,5.869,0.685,9.435
	c-2.644,7.145-9.042,6.963-14.157,6.742c-6.205-0.27-12.346,1.245-18.438,0.284c-15.738-2.479-31.65,2.646-47.357-1.306
	c-3.373-0.849-6.279,1.094-8.854,3.176c-3.559,2.879-7.028,3.057-10.886,0.367c-2.198-1.533-4.733-2.858-7.312-3.51
	c-6.283-1.59-10.869-3.993-12.75-11.266c-1.732-6.698-8.771-4.658-12.781-3.391c-9.489,2.998-19.102,0.204-28.624,2.185
	c-7.725,1.606-7.106-8.387-11.872-11.574c-0.713-0.477-0.921-1.73-1.324-2.643c-0.713-1.614-0.354-4.769-3.274-3.626
	c-2.306,0.902-1.12,3.297-0.626,5.26c1.061,4.203,0.154,7.923-1.576,12.11c-2.632,6.371-5.61,5.929-10.043,2.603
	c0.145-0.341,0.288-0.683,0.426-1.027c2.512-2.598,3.538-5.869,4.483-9.266c7.914-28.443,18.608-55.601,36.94-79.195
	c1.527-1.965,3.044-3.926,4.801-5.69c3.346-3.087,6.511-6.366,9.743-9.573c1.808-1.739,3.994-2.793,6.387-3.682
	c-3.067-0.523-5.881,0.429-8.678,1.49c-23.843,9.837-40.116,28.168-54.311,48.7c-8.663,12.532-15.792,25.978-22.195,39.801
	c-0.446,0.559-0.916,1.098-1.408,1.615c-3.297,1.406-4.534,4.331-5.192,7.486c-0.84,4.027-3.194,6.406-7.082,7.426
	c-2.073-2.973-0.574-5.844,0.53-8.521c13.24-32.156,30.66-61.614,56.174-85.714c12.359-11.676,26.393-20.399,43.384-23.766
	c8.789-1.741,16.931-0.192,24.424,4.403c3.543,2.173,7.279,4.644,7.131,9.729c-6.833,7.053-12.723,15.948-24.82,12.819
	c-0.518-5.827,4.631-7.566,7.757-10.778c1.786-1.835,6.099-3.32,4.249-5.958c-2.062-2.94-4.968,0.501-6.771,2.105
	c-21.518,19.124-41.981,39.12-51.696,67.298c-1.535,4.453-2.987,9.027-2.533,13.873c1.454,15.523,16.041,24.179,30.675,18.092
	c9.854-4.099,17.931-10.641,24.799-18.755c1.865-2.204,3.15-5.269,6.813-5.115c0.127,2.732,0.271,5.398-0.633,8.126
	c-1.586,4.781,1.966,7.532,5.41,8.191c3.934,0.751,4.266-3.41,4.316-6.329c0.091-5.22,2.264-9.907,4.795-13.954
	c3.508-5.604,7.966-10.063,16.223-9.374c14.934,1.247,29.983,0.095,44.925,2.894c6.038,1.132,12.614-0.71,18.952-1.042
	c3.58-0.188,7.51-1.342,8.891,4.081c1.439,5.656,1.236,11.064-2.314,15.587c-1.996,2.542-3.727-1.104-5.635-1.786
	c-0.769-0.814-0.687-1.777-0.494-2.769c0.184-0.95,0.773-1.795,0.728-2.804c-0.955,0.217-1.21,1.213-1.928,1.715
	c-3.265,2.279-3.58-0.217-4.185-3.35c-1.471,3.71-4.862,6.311-3.175,9.802c1.581,3.268,4.95-1.05,7.343,0.61
	c-1.557,6.385,7.236,5.354,7.482,10.445c0.08,2.914-2.415,2.763-4.162,3.509c-1.311,0.237-2.639,0.032-3.953,0.169
	c-3.299,1.428-3.611,5.113-5.672,7.463c-1.091,1.243-2.193,3.102-4.154,1.832c-1.457-0.944-0.65-2.623-0.414-4.064
	c0.271-1.659,2.654-3.418-0.126-4.998c-0.636-0.062-1.239-0.166-1.854-0.271c-3.583-0.849-7.115-0.357-10.643,0.331
	c-0.669,0.06-1.337,0.046-2.002-0.001c-4.878,1.036-6.776,3.934-5.523,8.799c1.918,0.541,2.573,2.531,4.126,3.484
	c5.285,5.094,5.585-2.547,8.555-3.344c0.68-0.188,1.345-0.141,2.003,0.102c4.039,4.521,7.924,1.89,11.816-0.265
	c0.703-0.067,1.373,0.062,2.008,0.371c1.897,1.234,3.187,4.082,6.209,2.341c-4.133-1.56-4.717-4.06-0.762-6.078
	C248.622,211.205,251.651,209.639,254.992,210.483z"/>
<path fill-rule="evenodd" clip-rule="evenodd" fill="#687374" d="M160.511,109.995c-4.599-9.75-15.417-14.682-28.335-13.005
	c-11.949,1.55-22.786,6.229-32.108,13.483c-34.384,26.752-56.248,62.238-70.35,102.943c-5.122,11.521-5.611,11.578-16.299,3.907
	c-2.18-1.564-3.131-2.887-1.908-5.497c18.686-39.924,37.724-79.651,74.26-107.129c13.969-10.506,29.098-17.946,47.457-17.667
	c30.038,0.456,44.112,17.516,38.513,47.33c-3.396,18.084-11.876,33.741-21.908,48.77c-6.448,6.91-12.315,14.385-20.277,19.783
	c-4.378,2.969-8.884,5.661-13.959,7.078c-17.214,4.807-32.276-8.922-29.52-26.831c1.867-12.126,7.4-22.742,14.182-32.703
	c11.583-17.014,25.333-32.103,41.32-45.104c1.531-1.245,3.182-2.519,4.993-3.199c2.401-0.902,4.48,0.49,5.792,2.367
	c1.438,2.059-0.726,3.079-1.904,4.195c-4.691,4.44-10.208,7.994-14.171,13.219c-0.868,4.583-4.662,7.008-7.692,9.792
	c-11.761,10.805-20.624,23.607-27.315,38.021c-3.413,7.354-5.563,14.933-4.815,23.153c0.746,8.182,4.616,11.029,12.645,8.827
	c13.034-3.577,21.667-13.223,29.557-23.141c11.323-14.232,18.317-30.668,22.146-48.551
	C162.284,123.162,160.031,116.669,160.511,109.995z"/>
<path fill-rule="evenodd" clip-rule="evenodd" fill="#F7F7F7" d="M65.803,215.33c-6.039,2.389-10.7,2.027-13.213-5.242
	c-1.403-4.058-4.046-7.688-6.129-11.509c1.72-2.882,5.894-0.152,7.48-3.314c9.72-24.973,22.664-47.995,40.875-67.811
	c2.447-2.663,4.634-5.987,8.892-6.171c1.747,0.508,2.255,1.765,2.083,3.434c-7.882,10.233-16.533,19.908-23.088,31.13
	c-8.669,14.84-17.053,29.809-22.621,46.189c-1.795,5.281-1.817,9.16,4.7,10.514c1,0.207,1.486,1.227,1.286,2.361L65.803,215.33z"/>
<path fill-rule="evenodd" clip-rule="evenodd" fill="#6D7778" d="M228.191,93.395c-18.708-8.967-37.24-6.693-55.672,0.909
	c-1.604,0.661-3.037,1.891-4.684,2.259c-2.626,0.586-4.163-1.537-5.285-3.359c-1.111-1.805,0.849-2.503,2.092-3.151
	c16.109-8.393,32.809-13.267,51.023-7.95c6.037,1.762,11.689,4.358,15.633,9.624C231.332,94.272,230.224,94.691,228.191,93.395z"/>
<path fill-rule="evenodd" clip-rule="evenodd" fill="#F2F3F3" d="M253.488,129.466c-2.121,2.143,1.896,5.648-1.658,7.474
	c-4.637-1.63-3.971,4.276-7.004,4.936c-1.385,0.486-2.682,0.065-3.979-0.364c-3.275-2.008-6.404,0.165-9.6,0.363
	c-0.72-0.064-1.786-0.478-2.113-0.079c-5.01,6.115-8.28,3.74-10.924-2.111c-1.156-5.405-6.023-3.899-9.451-5.071
	c-0.076-0.65-0.154-1.3-0.231-1.949c0.902-6.218,4.483-10.258,10.206-12.556c3,1.67-0.125,5.051,1.967,6.952
	c1.107,0.229,2.213,0.315,3.329,0.296c1.495-0.14,2.72-1.127,4.187-1.332c1.591-0.053,1.922,1.965,3.425,2.043
	c1.11-0.237,2.173-0.72,3.334-0.464c0.866,0.442,1.349,1.176,1.616,2.054c3.892,0.752,6.522-3.39,10.393-2.693
	c1.393-0.042,2.715,0.294,4.017,0.747C251.992,128.063,252.8,128.682,253.488,129.466z"/>
<path fill-rule="evenodd" clip-rule="evenodd" fill="#384546" d="M208.76,134.613c5.051-1.722,10.342-3.955,10.426,4.896
	c1.301,2.302,0.598,3.926-1.695,5.013c-3.383,1.406-3.209,5.391-5.525,7.603c-3.143,3-6.991,4.825-10.727,2.397
	c-3.672-2.388-0.708-5.885,0.438-8.664C203.375,141.737,205.603,137.858,208.76,134.613z"/>
<path fill-rule="evenodd" clip-rule="evenodd" fill="#3C494A" d="M228.407,126.727c-1.031,1.858-2.276,3.34-4.733,2.688
	c-2.584-3.657,1.959-5.906,1.809-8.825c-1.165,2.591-2.102,5.571-4.698,7.556c-0.8,1.043-1.857,1.594-3.129,1.181
	c-1.953-0.634-0.779-1.845-0.352-2.818c0.858-1.952,2.313-3.723,1.724-6.083c-0.887-2.675,1.007-3.412,2.895-4.153
	c5.621-5.465,12.07-2.656,18.321-1.833c1.362,5.99-0.96,10.421-5.827,13.776c-0.812,1.303-2.124,1.317-3.436,1.338
	c-2.004-3.378,0.181-5.938,1.265-8.284C230.912,122.612,230.487,125.277,228.407,126.727z"/>
<path fill-rule="evenodd" clip-rule="evenodd" fill="#384546" d="M195.104,128.075c-3.124,1.81-6.813,3.539-9.636,0.726
	c-2.971-2.961-0.373-6.511,1.15-9.54c1.997-3.972,3.647-8.354,7.962-10.493c4.431-2.196,8.3-2.457,9.127,3.959
	C203.183,119.157,201.085,124.704,195.104,128.075z"/>
<path fill-rule="evenodd" clip-rule="evenodd" fill="#3C494A" d="M247.403,127.859c-3.122,2.642-8.909,1.048-10.323,6.57
	c-0.178,0.7-1.943,0.847-2.551-0.056c-1.227-1.824,1.021-3.049,1.113-4.698c1.881-4.855,3.461-9.861,6.994-13.884
	c6.36-4.375,8.9-3.992,10.648,1.606C252.57,121.585,251.915,125.807,247.403,127.859z"/>
<path fill-rule="evenodd" clip-rule="evenodd" fill="#8F9697" d="M243.051,192.727c-2.846,3.246-6.918,3.992-9.856,1.691
	c-2.836-2.219,0.419-5.316,1.483-7.92c0.373-0.91,0.768-1.848,1.348-2.628c1.365-1.835,1.682-5.894,4.666-4.685
	c3.455,1.401-1.318,3.914-0.316,6.116c0.313,0.052,0.817,0.302,1.045,0.146c2.494-1.712,2.99-8.149,5.913-5.985
	c3.626,2.686-2.353,6.366-2.572,10.059C244.192,190.591,243.621,191.658,243.051,192.727z"/>
<path fill-rule="evenodd" clip-rule="evenodd" fill="#828A8B" d="M245.852,205.846c1.561-0.892,3.122-1.783,4.682-2.675
	c5.068,0.254,5.395,3.399,4.459,7.313c-2.063,4.286-8.32,0.837-10.51,5.598c2.604,2.415,4.005-3.484,6.695,0.17
	c-0.666,2.91-3.083,4.444-6.479,4.685c-3.025,0.214-4.562-1.415-4.638-4.432C239.711,211.712,241.545,208.107,245.852,205.846z"/>
<path fill-rule="evenodd" clip-rule="evenodd" fill="#354344" d="M230.891,141.528c3.283-2.505,6.643-4.503,10.721-1.561
	c2.205,6.727-1.453,11.085-6.08,15.051c-2.936-0.045-5.871-0.09-8.806-0.135c-2.039-3.914-1.605-7.604,2.631-9.186
	c2.737-1.022,3.048-1.397,1.034-3.278C230.557,142.122,230.723,141.825,230.891,141.528z"/>
<path fill-rule="evenodd" clip-rule="evenodd" fill="#2F3D3F" d="M221.922,116.272c-0.965,1.384-1.93,2.769-2.895,4.153
	c-4.696,3.053-6.805,8.326-10.499,12.239c-1.729,0.32-2.814,3.212-5.556,0.614c1.843-3.257,5.682-6.441,4.035-11.274
	c-0.645-3.728,0.1-6.757,4.287-7.711c1.171-0.267,2.433,0.115,1.824,1.911c1.502,2.51,2.83,1.034,3.813-0.348
	C218.941,113.027,220.424,114.194,221.922,116.272z"/>
<path fill-rule="evenodd" clip-rule="evenodd" fill="#404D4E" d="M262.346,115.924c2.088-1.9,4.313-3.45,7.367-2.89
	c1.639,0.3,2.733,1.189,2.939,2.9c0.16,1.315-0.23,2.515-1.357,3.273c-1.338,0.899-1.986-0.381-3.037-0.87
	c-5.164-2.402-3.095,3.374-5.433,4.227c1.806,2.177,5.385-1.127,5.607,2.445c0.151,2.398-2.116,3.782-4.319,4.613
	c-1.98,0.747-3.931,0.474-5.844-0.306C255.05,123.459,257.873,119.44,262.346,115.924z"/>
<path fill-rule="evenodd" clip-rule="evenodd" fill="#424F50" d="M217.49,144.521c0.564-1.671,1.131-3.342,1.695-5.012
	c7.535-1.996,1.307,4.446,3.787,5.869c1.4-1.825,2.609-3.947,4.332-5.498c1.861-1.676,3.738-1.826,3.586,1.648
	c0,0,0.154-0.081,0.154-0.081c-1.747,3.614-4.002,6.829-7.272,9.245c-1.886,2.007-3.272,6.036-6.668,4.007
	c-2.729-1.631-0.148-4.792,0.218-7.274C217.464,146.47,217.439,145.489,217.49,144.521z"/>
<path fill-rule="evenodd" clip-rule="evenodd" fill="#465354" d="M213.119,116.204c-3.063-0.093-3.063-0.093-6.111,5.8
	c-4.416,0.64-2.49,8.918-8.786,7.294c-0.563-6.338,4.319-10.153,6.951-15.011c0.485-0.868,0.936-1.759,1.462-2.602
	c2.365-3.788,4.471-6.698,5.22,0.84C211.957,113.558,215.418,113.905,213.119,116.204z"/>
<path fill-rule="evenodd" clip-rule="evenodd" fill="#404D4E" d="M244.409,141.447c1.149-2.073,1.989-4.421,3.522-6.156
	c2.318-2.625,4.094-2.441,3.898,1.649c-2.611,4.736-5.213,9.477-7.838,14.206c-1.159,2.088-1.834,4.906-5.302,3.728
	C237.635,149.136,241.619,145.546,244.409,141.447z"/>
<path fill-rule="evenodd" clip-rule="evenodd" fill="#445152" d="M253.488,129.466c-0.979-0.015-1.955-0.03-2.934-0.044
	c-1.736-4.767,1.841-7.506,4.1-10.749c1.21-2.042,1.573-4.93,4.564-5.28c1.802-0.211,1.59,1.427,1.715,2.602
	c-1.549,3.747-2.691,7.721-5.866,10.567C254.541,127.53,254.014,128.498,253.488,129.466z"/>
<path fill-rule="evenodd" clip-rule="evenodd" fill="#C6CACA" d="M223.772,150.692c1.98-3.431,3.903-6.907,7.272-9.245
	c1.752,5.517,4.153-1.351,6.79,1.247c-2.546,4.727-13.723,2.977-11.109,12.189C224.376,154.448,225.472,151.586,223.772,150.692z"/>
<path fill-rule="evenodd" clip-rule="evenodd" fill="#C1C6C6" d="M205.173,114.287c-2.317,5.004-4.634,10.008-6.95,15.011
	c-1.04-0.408-2.079-0.815-3.118-1.223c2.868-5.116,5.735-10.231,8.604-15.347C204.196,113.248,204.684,113.768,205.173,114.287z"/>
<path fill-rule="evenodd" clip-rule="evenodd" fill="#C6CACA" d="M242.637,115.791c-1.932,4.829-3.771,9.706-6.994,13.884
	c-0.409-0.486-0.818-0.973-1.227-1.459c1.942-4.592,3.885-9.184,5.827-13.776C241.041,114.891,241.84,115.341,242.637,115.791z"/>
<path fill-rule="evenodd" clip-rule="evenodd" fill="#C6CACA" d="M244.409,141.447c-1.049,4.84-5.083,8.41-5.719,13.426
	c-1.055,0.048-2.108,0.096-3.161,0.145c2.061-5.004,5.522-9.44,6.082-15.051C242.545,140.461,243.478,140.954,244.409,141.447z"/>
<path fill-rule="evenodd" clip-rule="evenodd" fill="#A2A8A9" d="M254.654,118.673c-0.447,3.933-4.1,6.644-4.1,10.749
	c-1.051-0.521-2.102-1.042-3.151-1.563c1.96-3.487,3.921-6.975,5.882-10.462C253.742,117.823,254.199,118.248,254.654,118.673z"/>
<path fill-rule="evenodd" clip-rule="evenodd" fill="#BDC2C2" d="M255.067,126.563c1.43-3.814,2.848-7.636,5.866-10.567
	c0.468-0.113,0.938-0.137,1.412-0.072c-1.473,4.43-5.43,8.103-4.076,13.393C257.203,128.398,256.135,127.48,255.067,126.563z"/>
<path fill-rule="evenodd" clip-rule="evenodd" fill="#F4F5F5" d="M55.44,196.854c-2.178,4.817-6.214-0.036-8.979,1.725
	c-1.49-0.023-2.98-0.049-4.47-0.074c-0.006-0.458-0.017-0.916-0.032-1.375C46.39,193.965,50.885,193.943,55.44,196.854z"/>
<path fill-rule="evenodd" clip-rule="evenodd" fill="#919899" d="M228.191,93.395c1.334-0.001,2.498-0.315,3.105-1.669
	c2.402,1.607,3.381,3.981,4.707,8.509C232.433,97.108,230.313,95.251,228.191,93.395z"/>
<path fill-rule="evenodd" clip-rule="evenodd" fill="#FEFEFE" d="M160.511,109.995c5.777,11.626,2.196,23.008-1.518,34.066
	c-7.38,21.977-19.023,41.145-38.664,54.53c-3.536,2.41-7.339,4.295-11.481,5.339c-8.797,2.218-14.055-1.638-14.617-10.751
	c-0.841-13.653,5.115-25.311,11.628-36.537c7.828-13.489,18.548-24.66,30.429-34.709
	C146.908,123.118,152.785,114.68,160.511,109.995z"/>
<path fill-rule="evenodd" clip-rule="evenodd" fill="#2B393B" d="M66.065,214.91c-9.865-3.903-9.982-3.935-7.072-14.682
	c2.875-10.617,8.563-20.07,13.559-29.691c8.69-16.74,18.78-32.699,32.429-46.045c2.204-2.625,3.562-6.339,7.94-6.17
	c1.04,0.478,1.839,1.08,1.218,2.401c-21.718,25.459-33.565,55.694-42.417,87.407C70.905,211.055,71.652,215.768,66.065,214.91z"/>
<path fill-rule="evenodd" clip-rule="evenodd" fill="#9BA2A3" d="M55.44,196.854c-4.494,0.091-8.987,0.184-13.481,0.274
	c15.506-34.861,34.689-66.809,69.081-86.574c2.76-1.586,5.95-2.422,8.94-3.606c3.93,3.548-1.121,3.764-2.029,5.527
	c-5.15,2.724-9.134,7.288-14.699,9.368C80.723,142.645,66.099,168.484,55.44,196.854z"/>
<path fill-rule="evenodd" clip-rule="evenodd" fill="#7B8485" d="M176.988,204.703c5.051-0.149,10.106-0.201,15.149-0.489
	c2.546-0.146,4.38,0.204,4.347,3.272c-0.806,5.447-2.322,10.479-7.738,13.229c-1.754,0.084-2.534-0.827-2.566-2.506
	c0.341-2.357,1.422-4.495,2.096-6.744c-0.635,2.084-1.73,3.85-3.445,5.221c-1.286,1.295-1.787,4.574-4.044,3.371
	c-2.297-1.223,0.048-3.412,0.61-5.146c0.727-2.233,2.947-3.949,2.373-7.096c-5.487,2.97-4.145,11.376-10.892,13.052
	c-1.704-2.517,0.553-4.01,1.155-5.824c0.585-2.894,1.689-5.659,2.104-8.595C176.243,205.779,176.532,205.199,176.988,204.703z"/>
<path fill-rule="evenodd" clip-rule="evenodd" fill="#717B7B" d="M177.008,194.055c-0.666,0.311-1.332,0.621-1.998,0.933
	c-2.96-9.935-6.106-1.982-9.232-0.137c-0.324,0.19-0.922-0.081-2.385-0.261c3.794-7.795,9.385-13.885,14.382-20.34
	c0.933-1.205,2.813-1.459,4.135-0.633c1.614,1.01,0.778,2.636,0.267,4.019c-1.438,3.888-3.373,7.619-3.667,11.86
	C177.437,190.827,178.794,192.959,177.008,194.055z"/>
<path fill-rule="evenodd" clip-rule="evenodd" fill="#7E8687" d="M197.775,208.846c1.391-1.911,1.969-4.758,5.209-4.542
	c2.144,0.143,4.748-1.124,6.261,1.044c1.261,1.809,0.056,3.962-0.94,5.583c-2.566,4.177-3.574,10.198-10.621,9.502
	c-2.284-0.227-2.275,2.241-3.383,3.413c-2.282,2.414-3.837,2.643-3.824-1.38C192.115,217.5,194.246,212.798,197.775,208.846z"/>
<path fill-rule="evenodd" clip-rule="evenodd" fill="#6F7979" d="M219.277,206.207c3.826-2.422,7.686-3.091,11.609-0.216
	c-0.23,4.433-2.121,7.964-5.737,10.555c-0.39,0.61-0.826,1.194-1.161,1.833c-3.898,7.432-3.896,7.434-9.109,2.379
	C211.576,214.466,213.839,209.857,219.277,206.207z"/>
<path fill-rule="evenodd" clip-rule="evenodd" fill="#757F7F" d="M223.557,182.028c1.259-1.973,3.046-3.226,5.295-3.812
	c1.506-0.391,3.016-0.326,4.197,0.763c2.176,2.006,1.027,4.229-0.156,6.025c-2.475,3.758-1.872,10.117-8.762,10.271
	c-3.166,0.07-5.418-0.438-5.491-4.157c-0.224-5.747,4.851-5.593,8.249-7.358c0.949,0.012-0.324-1.029-0.157-0.044
	c0.046,0.272-0.181,0.259-0.638,0.312C224.549,184.205,223.127,184.321,223.557,182.028z"/>
<path fill-rule="evenodd" clip-rule="evenodd" fill="#778081" d="M232.41,205.971c0.855-0.928,1.879-1.848,3.16-1.335
	c2.341,0.935,0.633,2.382,0.16,3.518c-1.008,2.411-2.182,4.753-4.115,8.897c4.409-2.715,4.99-5.831,6.365-8.299
	c1.168-2.098,1.711-4.801,5.057-4.267c1.02,4.955-2.701,8.128-4.517,12.019c-1.593,4.633-5.687,4.064-9.247,4.246
	c-3.052,0.156-2.606-2.254-2.507-4.231C227.92,212.612,229.354,208.857,232.41,205.971z"/>
<path fill-rule="evenodd" clip-rule="evenodd" fill="#737D7D" d="M217.778,191.098c-1.471,1.301-2.774,2.913-4.458,3.817
	c-1.751,0.939-3.956,0.966-5.592-0.476c-1.794-1.58-1.207-3.762-0.426-5.524c1.885-4.248,3.269-9.18,8.633-10.376
	c2.684-0.6,5.646-0.488,6.041,3.468c0.473,5.052-2.688,6.345-7.139,6.295C216.525,188.905,218.188,188.896,217.778,191.098z"/>
<path fill-rule="evenodd" clip-rule="evenodd" fill="#828A8B" d="M177.008,194.055c0.021-1.678-0.293-3.465,1.501-4.559
	c5.085-1.611,4.646-7.211,7.522-10.417c3.246-1.174,7.096-2.208,9.268,0.779c1.93,2.654-0.048,6.04-1.486,8.939
	c-1.463,2.944-3.274,5.419-6.531,6.506l-0.488-0.032l-0.489,0.04c-2.565-2.909-0.149-5.307,0.692-7.737
	c-1.133,1.662-1.783,3.886-3.762,5.124C181.688,195.579,179.503,195.531,177.008,194.055z"/>
<path fill-rule="evenodd" clip-rule="evenodd" fill="#737D7D" d="M196.604,192.557c-0.922,1.611-2.08,2.848-4.16,2.623
	c-1.824-5.894,2.453-9.357,5.329-13.38c1.756-3.834,5.332-2.944,8.392-3.065c2.316-0.092,3.236,1.782,2.234,3.501
	c-2.637,4.524-3.039,10.564-8.615,13.157c-2.476-2.896-0.293-5.251,0.633-7.526C199.191,189.192,198.772,191.604,196.604,192.557z"
	/>
<path fill-rule="evenodd" clip-rule="evenodd" fill="#737D7D" d="M176.988,204.703c0.008,0.475,0.024,0.948,0.049,1.422
	c-0.402,3.188-1.719,5.768-4.781,7.186c-4.834,3.131-4.913,11.45-14.739,12.11c6.451-4.442,4.868-10.47,7.517-14.919
	c1.741-1.732-0.779-4.523,1.521-6.115c6.091,0.12,1.179,4.406,2.423,6.417C172.713,210.162,172.031,203.693,176.988,204.703z"/>
<path fill-rule="evenodd" clip-rule="evenodd" fill="#717B7B" d="M152.983,216.332c-1.455,1.32-2.744,2.927-4.405,3.888
	c-2.11,1.22-4.787,1.099-5.684-1.38c-1.64-4.535,1.643-7.961,3.737-11.473c1.873-3.141,5.057-3.783,8.452-3.034
	c2.725,0.601,2.401,2.676,1.939,4.704C157.003,212.203,156.325,215.005,152.983,216.332z"/>
<path fill-rule="evenodd" clip-rule="evenodd" fill="#919899" d="M152.983,216.332c1.349-2.432,2.696-4.863,4.042-7.295
	c4.434,0.018,3.203-4.523,5.197-6.499c1.451-1.439,2.126-4.758,4.756-3.368c2.326,1.23-0.653,3.387-0.426,5.217
	c-0.229,2.107,0.608,4.479-1.52,6.115c-0.453-0.465-0.155-2.618-1.3-1.246c-1.672,2.008-2.516,4.687-3.841,7.006
	c-0.926,1.623-1.314,3.971-3.644,4.164C153.408,220.662,154.998,216.985,152.983,216.332z"/>
<path fill-rule="evenodd" clip-rule="evenodd" fill="#D0D4D4" d="M217.778,191.098c-2.629-3.979-4.372,2.153-7.243,0.3
	c0.223-7.351,11.352-2.109,11.441-9.391c0.525,0.007,1.053,0.015,1.58,0.021c2.4,3.372,4.223-1.416,7.076-0.136
	c-2.826,4.752-10.088,3.799-11.993,9.226l-0.431,0.003L217.778,191.098z"/>
<path fill-rule="evenodd" clip-rule="evenodd" fill="#C6CACA" d="M116.92,111.378c0.254-2.005,4.817-1.035,3.06-4.431
	c4.096-1.97,8.177-4.18,12.797-0.918c-1.958,4.579-7.354,2.385-9.832,5.48c-1.329,0.86-2.506,2.046-4.26,2.019
	C117.715,113.124,117.086,112.439,116.92,111.378z"/>
<path fill-rule="evenodd" clip-rule="evenodd" fill="#D5D7D8" d="M197.772,181.8c-0.998,4.771-5.396,8.188-5.331,13.381
	c-1.718,0.041-3.438,0.083-5.159,0.124c1.503-2.234,3.213-4.359,4.474-6.723c5.234-9.811,5.175-9.854-5.725-9.503
	C190.795,176.318,194.969,176.099,197.772,181.8z"/>
<path fill-rule="evenodd" clip-rule="evenodd" fill="#717B7B" d="M211.634,216.633c-1.022,1.244-1.682,3.664-3.714,2.679
	c-2.352-1.14-0.387-2.931,0.254-4.282c1.354-2.85,2.852-5.635,4.383-8.395c1.272-2.294,2.801-3.566,4.817-0.633
	C216.363,210.033,214.44,213.572,211.634,216.633z"/>
<path fill-rule="evenodd" clip-rule="evenodd" fill="#D5D7D8" d="M197.775,208.846c-2.041,4.75-3.933,9.58-7.299,13.62
	c-0.576-0.583-1.152-1.166-1.73-1.75c2.579-4.411,5.159-8.819,7.738-13.229C196.915,207.939,197.346,208.393,197.775,208.846z"/>
<path fill-rule="evenodd" clip-rule="evenodd" fill="#D5D7D8" d="M183.234,192.698c1.697-3.658,2.633-7.794,6.578-10.864
	c0.892,5.519-4.941,8.563-3.511,13.479C185.281,194.441,184.258,193.569,183.234,192.698z"/>
<path fill-rule="evenodd" clip-rule="evenodd" fill="#E1E3E4" d="M196.604,192.557c1.856-3.584,2.701-7.827,6.736-10.722
	c0.798,5.489-5.219,8.514-3.559,13.558C198.723,194.447,197.663,193.502,196.604,192.557z"/>
<path fill-rule="evenodd" clip-rule="evenodd" fill="#D0D4D4" d="M211.634,216.633c1.545-3.743,2.929-7.572,5.741-10.631
	c0.633,0.067,1.266,0.136,1.9,0.205c-2.005,4.688-6.365,8.663-4.397,14.551C212.442,220.448,213.42,217.454,211.634,216.633z"/>
<path fill-rule="evenodd" clip-rule="evenodd" fill="#465354" d="M118.498,113.005c1.482-0.499,2.964-0.997,4.446-1.496
	c-1.691,4.261-5.656,6.349-8.806,9.215c-0.681-0.645-1.361-1.289-2.041-1.933C112.306,114.732,115.251,113.702,118.498,113.005z"/>
<path fill-rule="evenodd" clip-rule="evenodd" fill="#CACECE" d="M238.521,216.504c1.506-4.007,3.011-8.013,4.517-12.019
	c0.938,0.453,1.877,0.907,2.814,1.36c-1.93,3.553-3.861,7.105-5.79,10.658C239.547,216.504,239.035,216.504,238.521,216.504z"/>
<path fill-rule="evenodd" clip-rule="evenodd" fill="#DDDFE0" d="M184.83,216.686c1.377-3.323,2.326-6.93,6.986-10.207
	c-1.476,5.326-3.318,8.631-5.638,11.729C185.729,217.701,185.279,217.193,184.83,216.686z"/>
<path fill-rule="evenodd" clip-rule="evenodd" fill="#DDDFE0" d="M232.41,205.971c-1.507,3.717-2.971,7.457-5.645,10.548
	c-0.539,0.009-1.078,0.019-1.617,0.027c1.577-3.7,2.898-7.542,5.738-10.555C231.396,205.984,231.902,205.978,232.41,205.971z"/>
<path fill-rule="evenodd" clip-rule="evenodd" fill="#DFE1E2" d="M172.256,213.311c1.594-2.395,3.188-4.79,4.781-7.186
	c2.096,4.016-1.568,6.091-3.004,8.917C173.44,214.465,172.848,213.889,172.256,213.311z"/>
<path fill-rule="evenodd" clip-rule="evenodd" fill="#F4F5F5" d="M118.498,113.005c-2.134,1.929-4.267,3.857-6.4,5.786
	c-2.372,1.901-4.744,3.801-7.117,5.702c-0.067-1.214-0.566-2.146-1.728-2.649c3.635-4.69,8.667-7.557,13.667-10.464
	C117.446,111.92,117.972,112.462,118.498,113.005z"/>
<path fill-rule="evenodd" clip-rule="evenodd" fill="#C6CACA" d="M220.784,128.145c1.956-4.143,3.17-8.755,7.894-12.615
	c-0.323,5.948-4.466,9.299-5.004,13.885C222.711,128.991,221.746,128.567,220.784,128.145z"/>
<path fill-rule="evenodd" clip-rule="evenodd" fill="#CCD0D0" d="M228.407,126.727c1.693-3.624,2.491-7.837,6.831-10.455
	c0.398,5.407-4.938,8.414-4.258,13.282C228.217,130.348,230.127,126.885,228.407,126.727z"/>
<path fill-rule="evenodd" clip-rule="evenodd" fill="#ECEDED" d="M214.883,135.208c-0.508,3.311-0.382,4.407-0.837,5.144
	c-2.509,4.065-3.016,9.678-8.59,11.37c-0.224,0.068-1.233-1.119-1.116-1.46C206.166,144.941,208.352,139.83,214.883,135.208z"/>
<path fill-rule="evenodd" clip-rule="evenodd" fill="#E8E9E9" d="M188.641,127.43c0.349-2.71,0.201-3.8,0.633-4.56
	c2.277-4.014,3.182-9.032,7.824-11.343c0.73-0.363,2.349,0.164,1.839,1.445C196.895,118.108,195.47,123.751,188.641,127.43z"/>
<path fill-rule="evenodd" clip-rule="evenodd" fill="#D5D7D8" d="M242.089,127.332c0.997-5.339,2.392-8.521,6.375-10.263
	C247.734,120.598,246.91,124.074,242.089,127.332z"/>
<path fill-rule="evenodd" clip-rule="evenodd" fill="#E6E7E7" d="M198.459,216.795c1.332-4.154,2.392-7.137,6.001-8.641
	C203.945,211.454,203.418,214.746,198.459,216.795z"/>
<path fill-rule="evenodd" clip-rule="evenodd" fill="#DBDDDE" d="M225.549,206.495c-2.052,5.462-2.738,9.245-7.904,11.566
	C218.856,213.232,219.869,209.701,225.549,206.495z"/>
<path fill-rule="evenodd" clip-rule="evenodd" fill="#DBDDDE" d="M152.382,208.037c-0.697,3.91-1.453,7.691-6.155,10.081
	C146.591,213.034,148.188,209.738,152.382,208.037z"/>
</svg>
